<svg width="61" height="69" viewBox="0 0 61 69" fill="none" xmlns="http://www.w3.org/2000/svg">
<path d="M30.5001 0C28.09 0 26.1429 1.92715 26.1429 4.3125V6.9C16.2032 8.89453 8.71437 17.6004 8.71437 28.0312V30.5648C8.71437 36.8988 6.35878 43.0172 2.11057 47.7609L1.10298 48.8795C-0.040769 50.1463 -0.313091 51.9656 0.381329 53.5154C1.07575 55.0652 2.6416 56.0625 4.35722 56.0625H56.6429C58.3586 56.0625 59.9108 55.0652 60.6188 53.5154C61.3269 51.9656 61.0409 50.1463 59.8972 48.8795L58.8896 47.7609C54.6414 43.0172 52.2858 36.9123 52.2858 30.5648V28.0312C52.2858 17.6004 44.797 8.89453 34.8572 6.9V4.3125C34.8572 1.92715 32.9101 0 30.5001 0ZM36.6682 66.4799C38.3021 64.8627 39.2144 62.666 39.2144 60.375H30.5001H21.7858C21.7858 62.666 22.6981 64.8627 24.332 66.4799C25.9659 68.0971 28.1853 69 30.5001 69C32.8148 69 35.0342 68.0971 36.6682 66.4799Z" fill="black"/>
</svg>
