<svg width="73" height="61" viewBox="0 0 73 61" fill="none" xmlns="http://www.w3.org/2000/svg">
<path d="M0 2.85938C0 1.2748 1.35608 0 3.04167 0H8.80816C11.5964 0 14.0677 1.525 15.221 3.8125H67.3095C70.6427 3.8125 73.076 6.79102 72.2016 9.81719L67.0054 27.9623C65.9281 31.7033 62.3161 34.3125 58.1972 34.3125H21.6339L22.3182 37.708C22.597 39.0543 23.8517 40.0312 25.3092 40.0312H61.8472C63.5328 40.0312 64.8889 41.3061 64.8889 42.8906C64.8889 44.4752 63.5328 45.75 61.8472 45.75H25.3092C20.9241 45.75 17.1601 42.8191 16.349 38.7803L9.80937 6.49316C9.72066 6.04043 9.30243 5.71875 8.80816 5.71875H3.04167C1.35608 5.71875 0 4.44395 0 2.85938ZM16.2222 55.2812C16.2222 54.5303 16.3796 53.7866 16.6853 53.0928C16.991 52.3989 17.4391 51.7685 18.004 51.2375C18.5689 50.7064 19.2395 50.2852 19.9776 49.9978C20.7156 49.7104 21.5067 49.5625 22.3056 49.5625C23.1044 49.5625 23.8955 49.7104 24.6335 49.9978C25.3716 50.2852 26.0422 50.7064 26.6071 51.2375C27.172 51.7685 27.6201 52.3989 27.9258 53.0928C28.2315 53.7866 28.3889 54.5303 28.3889 55.2812C28.3889 56.0322 28.2315 56.7759 27.9258 57.4697C27.6201 58.1636 27.172 58.794 26.6071 59.325C26.0422 59.8561 25.3716 60.2773 24.6335 60.5647C23.8955 60.8521 23.1044 61 22.3056 61C21.5067 61 20.7156 60.8521 19.9776 60.5647C19.2395 60.2773 18.5689 59.8561 18.004 59.325C17.4391 58.794 16.991 58.1636 16.6853 57.4697C16.3796 56.7759 16.2222 56.0322 16.2222 55.2812ZM58.8056 49.5625C60.419 49.5625 61.9663 50.165 63.1071 51.2375C64.248 52.31 64.8889 53.7645 64.8889 55.2812C64.8889 56.798 64.248 58.2525 63.1071 59.325C61.9663 60.3975 60.419 61 58.8056 61C57.1922 61 55.6448 60.3975 54.504 59.325C53.3631 58.2525 52.7222 56.798 52.7222 55.2812C52.7222 53.7645 53.3631 52.31 54.504 51.2375C55.6448 50.165 57.1922 49.5625 58.8056 49.5625Z" fill="black"/>
</svg>
