<svg width="108" height="86" viewBox="0 0 108 86" fill="none" xmlns="http://www.w3.org/2000/svg">
<path d="M0 7.375C0 3.43398 3.44732 0.25 7.71429 0.25H100.286C104.553 0.25 108 3.43398 108 7.375C108 11.316 104.553 14.5 100.286 14.5H7.71429C3.44732 14.5 0 11.316 0 7.375ZM0 43C0 39.059 3.44732 35.875 7.71429 35.875H100.286C104.553 35.875 108 39.059 108 43C108 46.941 104.553 50.125 100.286 50.125H7.71429C3.44732 50.125 0 46.941 0 43ZM108 78.625C108 82.566 104.553 85.75 100.286 85.75H7.71429C3.44732 85.75 0 82.566 0 78.625C0 74.684 3.44732 71.5 7.71429 71.5H100.286C104.553 71.5 108 74.684 108 78.625Z" fill="black"/>
</svg>
