<svg width="60" height="60" viewBox="0 0 60 60" fill="none" xmlns="http://www.w3.org/2000/svg">
<path d="M48.7524 24.3714C48.7524 29.7495 47.0062 34.7176 44.0647 38.7482L58.9013 53.5937C60.3662 55.0583 60.3662 57.4369 58.9013 58.9015C57.4364 60.3662 55.0574 60.3662 53.5925 58.9015L38.7558 44.056C34.7244 47.0087 29.7554 48.7429 24.3762 48.7429C10.9107 48.7429 0 37.8343 0 24.3714C0 10.9086 10.9107 0 24.3762 0C37.8417 0 48.7524 10.9086 48.7524 24.3714ZM24.3762 41.244C26.5924 41.244 28.7868 40.8075 30.8343 39.9596C32.8818 39.1117 34.7421 37.8689 36.3092 36.3021C37.8763 34.7353 39.1193 32.8753 39.9674 30.8283C40.8155 28.7812 41.252 26.5872 41.252 24.3714C41.252 22.1557 40.8155 19.9617 39.9674 17.9146C39.1193 15.8675 37.8763 14.0075 36.3092 12.4408C34.7421 10.874 32.8818 9.63117 30.8343 8.78325C28.7868 7.93532 26.5924 7.4989 24.3762 7.4989C22.16 7.4989 19.9656 7.93532 17.9181 8.78325C15.8706 9.63117 14.0102 10.874 12.4432 12.4408C10.8761 14.0075 9.63305 15.8675 8.78496 17.9146C7.93687 19.9617 7.50037 22.1557 7.50037 24.3714C7.50037 26.5872 7.93687 28.7812 8.78496 30.8283C9.63305 32.8753 10.8761 34.7353 12.4432 36.3021C14.0102 37.8689 15.8706 39.1117 17.9181 39.9596C19.9656 40.8075 22.16 41.244 24.3762 41.244Z" fill="black"/>
</svg>
