<svg width="57" height="58" viewBox="0 0 57 58" fill="none" xmlns="http://www.w3.org/2000/svg">
<g clip-path="url(#clip0_6_274)">
<path d="M28.5 29C32.8192 29 36.9616 27.4723 40.0157 24.753C43.0699 22.0338 44.7857 18.3456 44.7857 14.5C44.7857 10.6544 43.0699 6.96623 40.0157 4.24695C36.9616 1.52767 32.8192 0 28.5 0C24.1808 0 20.0384 1.52767 16.9843 4.24695C13.9301 6.96623 12.2143 10.6544 12.2143 14.5C12.2143 18.3456 13.9301 22.0338 16.9843 24.753C20.0384 27.4723 24.1808 29 28.5 29ZM22.6855 34.4375C10.1531 34.4375 0 43.4773 0 54.6355C0 56.4934 1.69219 58 3.7788 58H53.2212C55.3078 58 57 56.4934 57 54.6355C57 43.4773 46.8469 34.4375 34.3145 34.4375H22.6855Z" fill="black"/>
</g>
<defs>
<clipPath id="clip0_6_274">
<rect width="57" height="58" fill="white"/>
</clipPath>
</defs>
</svg>
